<svg xmlns="http://www.w3.org/2000/svg" xmlns:xlink="http://www.w3.org/1999/xlink" width="50" height="50" preserveAspectRatio="xMidYMid meet" version="1.0" viewBox="0 0 375 375" zoomAndPan="magnify"><path fill="#000" fill-opacity="1" fill-rule="nonzero" d="M 225 36.835938 C 225 38.042969 224.941406 39.246094 224.824219 40.445312 C 224.703125 41.644531 224.527344 42.839844 224.292969 44.019531 C 224.058594 45.203125 223.765625 46.375 223.414062 47.527344 C 223.0625 48.683594 222.65625 49.816406 222.195312 50.929688 C 221.734375 52.046875 221.21875 53.136719 220.652344 54.199219 C 220.082031 55.261719 219.460938 56.296875 218.792969 57.300781 C 218.121094 58.300781 217.402344 59.269531 216.640625 60.203125 C 215.875 61.136719 215.0625 62.027344 214.210938 62.882812 C 213.359375 63.734375 212.464844 64.542969 211.53125 65.308594 C 210.601562 66.074219 209.632812 66.792969 208.628906 67.460938 C 207.625 68.132812 206.59375 68.753906 205.527344 69.320312 C 204.464844 69.890625 203.375 70.40625 202.261719 70.867188 C 201.144531 71.328125 200.011719 71.734375 198.859375 72.085938 C 197.703125 72.433594 196.535156 72.726562 195.351562 72.960938 C 194.167969 73.199219 192.976562 73.375 191.773438 73.492188 C 190.574219 73.609375 189.371094 73.671875 188.164062 73.671875 C 186.957031 73.671875 185.753906 73.609375 184.554688 73.492188 C 183.355469 73.375 182.160156 73.199219 180.980469 72.960938 C 179.796875 72.726562 178.625 72.433594 177.472656 72.085938 C 176.316406 71.734375 175.183594 71.328125 174.070312 70.867188 C 172.953125 70.40625 171.863281 69.890625 170.800781 69.320312 C 169.738281 68.753906 168.703125 68.132812 167.699219 67.460938 C 166.699219 66.792969 165.730469 66.074219 164.796875 65.308594 C 163.863281 64.542969 162.972656 63.734375 162.117188 62.882812 C 161.265625 62.027344 160.457031 61.136719 159.691406 60.203125 C 158.925781 59.269531 158.207031 58.300781 157.539062 57.300781 C 156.867188 56.296875 156.246094 55.261719 155.679688 54.199219 C 155.109375 53.136719 154.59375 52.046875 154.132812 50.929688 C 153.671875 49.816406 153.265625 48.683594 152.914062 47.527344 C 152.566406 46.375 152.273438 45.203125 152.039062 44.019531 C 151.800781 42.839844 151.625 41.644531 151.507812 40.445312 C 151.390625 39.246094 151.328125 38.042969 151.328125 36.835938 C 151.328125 35.628906 151.390625 34.425781 151.507812 33.226562 C 151.625 32.023438 151.800781 30.832031 152.039062 29.648438 C 152.273438 28.464844 152.566406 27.296875 152.914062 26.140625 C 153.265625 24.988281 153.671875 23.851562 154.132812 22.738281 C 154.59375 21.625 155.109375 20.535156 155.679688 19.472656 C 156.246094 18.40625 156.867188 17.375 157.539062 16.371094 C 158.207031 15.367188 158.925781 14.398438 159.691406 13.46875 C 160.457031 12.535156 161.265625 11.640625 162.117188 10.789062 C 162.972656 9.9375 163.863281 9.125 164.796875 8.359375 C 165.730469 7.597656 166.699219 6.878906 167.699219 6.207031 C 168.703125 5.539062 169.738281 4.917969 170.800781 4.347656 C 171.863281 3.78125 172.953125 3.265625 174.070312 2.804688 C 175.183594 2.34375 176.316406 1.9375 177.472656 1.585938 C 178.625 1.234375 179.796875 0.941406 180.980469 0.707031 C 182.160156 0.472656 183.355469 0.296875 184.554688 0.175781 C 185.753906 0.0585938 186.957031 0 188.164062 0 C 189.371094 -0.00390625 190.578125 0.0507812 191.78125 0.164062 C 192.980469 0.28125 194.175781 0.453125 195.359375 0.6875 C 196.546875 0.917969 197.714844 1.207031 198.871094 1.554688 C 200.027344 1.902344 201.164062 2.308594 202.28125 2.769531 C 203.398438 3.226562 204.488281 3.742188 205.554688 4.308594 C 206.621094 4.878906 207.65625 5.496094 208.660156 6.167969 C 209.664062 6.835938 210.636719 7.554688 211.570312 8.320312 C 212.503906 9.085938 213.398438 9.894531 214.25 10.75 C 215.105469 11.601562 215.914062 12.496094 216.679688 13.429688 C 217.445312 14.363281 218.164062 15.335938 218.832031 16.339844 C 219.503906 17.34375 220.121094 18.378906 220.691406 19.445312 C 221.257812 20.511719 221.773438 21.601562 222.230469 22.71875 C 222.691406 23.835938 223.097656 24.972656 223.445312 26.128906 C 223.792969 27.285156 224.082031 28.453125 224.3125 29.640625 C 224.546875 30.824219 224.71875 32.019531 224.835938 33.21875 C 224.949219 34.421875 225.003906 35.628906 225 36.835938 Z M 78.722656 35.503906 C 77.746094 36.214844 76.808594 36.96875 75.90625 37.765625 C 75 38.566406 74.140625 39.410156 73.320312 40.292969 C 72.5 41.179688 71.726562 42.101562 70.996094 43.0625 C 70.269531 44.023438 69.585938 45.015625 68.957031 46.042969 C 68.324219 47.070312 67.746094 48.128906 67.214844 49.210938 C 66.6875 50.296875 66.214844 51.40625 65.796875 52.535156 C 65.378906 53.667969 65.015625 54.816406 64.707031 55.980469 C 64.402344 57.148438 64.152344 58.328125 63.964844 59.519531 C 63.773438 60.710938 63.640625 61.90625 63.570312 63.109375 C 63.496094 64.316406 63.480469 65.519531 63.527344 66.726562 C 63.574219 67.929688 63.679688 69.128906 63.839844 70.324219 C 64.003906 71.519531 64.226562 72.703125 64.507812 73.878906 C 64.785156 75.050781 65.121094 76.207031 65.515625 77.347656 C 65.910156 78.488281 66.359375 79.605469 66.859375 80.703125 C 67.363281 81.796875 67.917969 82.867188 68.527344 83.910156 C 69.136719 84.949219 69.792969 85.960938 70.5 86.9375 C 71.207031 87.914062 71.960938 88.851562 72.761719 89.757812 C 73.5625 90.660156 74.402344 91.519531 75.289062 92.339844 C 76.171875 93.160156 77.09375 93.9375 78.054688 94.664062 C 79.015625 95.394531 80.011719 96.074219 81.039062 96.707031 C 82.066406 97.339844 83.121094 97.917969 84.203125 98.449219 C 85.289062 98.976562 86.398438 99.449219 87.527344 99.871094 C 88.660156 100.289062 89.808594 100.652344 90.972656 100.957031 C 92.140625 101.265625 93.320312 101.511719 94.507812 101.703125 C 95.699219 101.894531 96.898438 102.027344 98.101562 102.101562 C 99.304688 102.171875 100.511719 102.1875 101.714844 102.140625 C 102.921875 102.097656 104.121094 101.992188 105.316406 101.828125 C 106.511719 101.667969 107.695312 101.445312 108.867188 101.167969 C 110.042969 100.886719 111.199219 100.550781 112.339844 100.15625 C 113.480469 99.765625 114.597656 99.316406 115.695312 98.8125 C 116.789062 98.3125 117.859375 97.753906 118.902344 97.148438 C 119.941406 96.539062 120.953125 95.882812 121.929688 95.175781 C 122.90625 94.46875 123.847656 93.714844 124.75 92.914062 C 125.652344 92.117188 126.515625 91.273438 127.335938 90.390625 C 128.15625 89.507812 128.929688 88.585938 129.660156 87.625 C 130.390625 86.664062 131.070312 85.671875 131.703125 84.644531 C 132.335938 83.617188 132.917969 82.558594 133.445312 81.476562 C 133.972656 80.390625 134.449219 79.285156 134.867188 78.152344 C 135.289062 77.023438 135.652344 75.875 135.957031 74.707031 C 136.265625 73.542969 136.515625 72.363281 136.707031 71.171875 C 136.898438 69.980469 137.03125 68.785156 137.101562 67.578125 C 137.175781 66.375 137.191406 65.171875 137.144531 63.964844 C 137.101562 62.761719 136.996094 61.5625 136.835938 60.367188 C 136.671875 59.171875 136.453125 57.984375 136.171875 56.8125 C 135.894531 55.640625 135.558594 54.484375 135.164062 53.34375 C 134.773438 52.203125 134.324219 51.082031 133.824219 49.988281 C 133.320312 48.890625 132.765625 47.820312 132.15625 46.777344 C 131.550781 45.738281 130.894531 44.726562 130.1875 43.75 C 129.480469 42.773438 128.726562 41.832031 127.925781 40.925781 C 127.125 40.023438 126.285156 39.160156 125.398438 38.339844 C 124.515625 37.515625 123.589844 36.742188 122.628906 36.011719 C 121.667969 35.28125 120.675781 34.597656 119.648438 33.964844 C 118.617188 33.332031 117.5625 32.75 116.476562 32.222656 C 115.390625 31.695312 114.285156 31.21875 113.152344 30.800781 C 112.019531 30.378906 110.871094 30.015625 109.703125 29.707031 C 108.535156 29.402344 107.355469 29.152344 106.164062 28.960938 C 104.972656 28.769531 103.773438 28.640625 102.566406 28.566406 C 101.363281 28.492188 100.15625 28.480469 98.953125 28.523438 C 97.746094 28.570312 96.542969 28.675781 95.347656 28.835938 C 94.152344 29 92.964844 29.222656 91.792969 29.503906 C 90.617188 29.78125 89.460938 30.121094 88.320312 30.511719 C 87.179688 30.90625 86.058594 31.355469 84.960938 31.859375 C 83.863281 32.363281 82.796875 32.921875 81.753906 33.53125 C 80.710938 34.136719 79.699219 34.796875 78.722656 35.503906 Z M 34.707031 175 C 35.855469 175.375 37.015625 175.695312 38.195312 175.957031 C 39.371094 176.21875 40.5625 176.421875 41.757812 176.570312 C 42.957031 176.714844 44.160156 176.800781 45.367188 176.828125 C 46.574219 176.855469 47.777344 176.820312 48.980469 176.730469 C 50.183594 176.640625 51.382812 176.488281 52.570312 176.28125 C 53.757812 176.070312 54.933594 175.804688 56.097656 175.480469 C 57.257812 175.15625 58.402344 174.773438 59.527344 174.339844 C 60.652344 173.902344 61.753906 173.410156 62.832031 172.863281 C 63.90625 172.320312 64.957031 171.722656 65.972656 171.074219 C 66.992188 170.425781 67.976562 169.730469 68.925781 168.984375 C 69.875 168.242188 70.785156 167.449219 71.65625 166.617188 C 72.53125 165.78125 73.359375 164.90625 74.144531 163.992188 C 74.929688 163.074219 75.671875 162.125 76.363281 161.132812 C 77.054688 160.144531 77.699219 159.125 78.289062 158.074219 C 78.882812 157.023438 79.421875 155.945312 79.90625 154.839844 C 80.394531 153.734375 80.824219 152.609375 81.199219 151.460938 C 81.574219 150.316406 81.894531 149.152344 82.15625 147.972656 C 82.417969 146.796875 82.621094 145.609375 82.761719 144.410156 C 82.90625 143.210938 82.992188 142.007812 83.019531 140.800781 C 83.046875 139.59375 83.011719 138.390625 82.921875 137.1875 C 82.828125 135.984375 82.675781 134.789062 82.46875 133.597656 C 82.257812 132.410156 81.992188 131.234375 81.664062 130.074219 C 81.339844 128.910156 80.957031 127.765625 80.519531 126.640625 C 80.082031 125.515625 79.589844 124.417969 79.042969 123.339844 C 78.5 122.265625 77.902344 121.214844 77.253906 120.199219 C 76.605469 119.179688 75.90625 118.199219 75.160156 117.25 C 74.414062 116.300781 73.625 115.390625 72.789062 114.519531 C 71.957031 113.644531 71.078125 112.816406 70.164062 112.03125 C 69.246094 111.246094 68.292969 110.507812 67.304688 109.816406 C 66.316406 109.125 65.296875 108.484375 64.242188 107.890625 C 63.191406 107.300781 62.113281 106.761719 61.007812 106.277344 C 59.902344 105.792969 58.777344 105.359375 57.628906 104.988281 C 56.480469 104.613281 55.320312 104.292969 54.140625 104.035156 C 52.960938 103.773438 51.773438 103.570312 50.574219 103.429688 C 49.375 103.285156 48.175781 103.199219 46.96875 103.175781 C 45.761719 103.148438 44.554688 103.183594 43.351562 103.277344 C 42.148438 103.367188 40.953125 103.519531 39.765625 103.730469 C 38.578125 103.941406 37.402344 104.210938 36.238281 104.535156 C 35.078125 104.863281 33.933594 105.246094 32.808594 105.683594 C 31.683594 106.121094 30.585938 106.613281 29.507812 107.160156 C 28.433594 107.707031 27.386719 108.304688 26.367188 108.957031 C 25.351562 109.605469 24.367188 110.304688 23.421875 111.050781 C 22.472656 111.796875 21.5625 112.585938 20.691406 113.421875 C 19.820312 114.257812 18.992188 115.132812 18.207031 116.050781 C 17.421875 116.96875 16.683594 117.921875 15.992188 118.910156 C 15.300781 119.902344 14.660156 120.921875 14.070312 121.972656 C 13.480469 123.027344 12.941406 124.105469 12.457031 125.210938 C 11.972656 126.316406 11.542969 127.441406 11.171875 128.589844 C 10.796875 129.734375 10.480469 130.898438 10.222656 132.074219 C 9.960938 133.25 9.761719 134.4375 9.617188 135.632812 C 9.476562 136.828125 9.390625 138.027344 9.367188 139.234375 C 9.339844 140.4375 9.375 141.640625 9.46875 142.84375 C 9.5625 144.042969 9.710938 145.238281 9.921875 146.421875 C 10.132812 147.609375 10.398438 148.78125 10.726562 149.941406 C 11.050781 151.101562 11.429688 152.246094 11.867188 153.367188 C 12.304688 154.488281 12.796875 155.589844 13.339844 156.664062 C 13.886719 157.738281 14.484375 158.78125 15.128906 159.796875 C 15.777344 160.8125 16.472656 161.796875 17.21875 162.742188 C 17.960938 163.691406 18.75 164.601562 19.582031 165.472656 C 20.414062 166.339844 21.289062 167.167969 22.203125 167.953125 C 23.117188 168.738281 24.066406 169.476562 25.054688 170.167969 C 26.042969 170.859375 27.058594 171.5 28.109375 172.089844 C 29.160156 172.683594 30.234375 173.222656 31.335938 173.707031 C 32.4375 174.195312 33.5625 174.625 34.707031 175 Z M 81.78125 221.011719 C 81.421875 219.863281 81.003906 218.734375 80.53125 217.625 C 80.058594 216.515625 79.53125 215.433594 78.953125 214.378906 C 78.375 213.320312 77.746094 212.296875 77.066406 211.300781 C 76.390625 210.308594 75.664062 209.347656 74.890625 208.425781 C 74.117188 207.5 73.300781 206.617188 72.441406 205.773438 C 71.578125 204.929688 70.679688 204.132812 69.742188 203.375 C 68.804688 202.621094 67.832031 201.914062 66.824219 201.253906 C 65.816406 200.59375 64.777344 199.984375 63.710938 199.425781 C 62.644531 198.867188 61.550781 198.363281 60.433594 197.914062 C 59.316406 197.460938 58.179688 197.066406 57.023438 196.726562 C 55.867188 196.390625 54.699219 196.105469 53.515625 195.882812 C 52.332031 195.65625 51.140625 195.492188 49.941406 195.382812 C 48.742188 195.277344 47.539062 195.226562 46.335938 195.238281 C 45.132812 195.246094 43.929688 195.316406 42.730469 195.445312 C 41.535156 195.574219 40.347656 195.757812 39.167969 196.003906 C 37.988281 196.246094 36.824219 196.550781 35.671875 196.910156 C 34.523438 197.265625 33.394531 197.679688 32.285156 198.152344 C 31.175781 198.621094 30.089844 199.144531 29.035156 199.71875 C 27.976562 200.296875 26.949219 200.921875 25.953125 201.597656 C 24.957031 202.273438 23.996094 203 23.070312 203.769531 C 22.144531 204.539062 21.257812 205.355469 20.414062 206.214844 C 19.566406 207.070312 18.765625 207.96875 18.007812 208.90625 C 17.25 209.839844 16.539062 210.8125 15.878906 211.820312 C 15.214844 212.824219 14.605469 213.859375 14.042969 214.925781 C 13.484375 215.992188 12.976562 217.082031 12.523438 218.199219 C 12.070312 219.316406 11.671875 220.449219 11.328125 221.605469 C 10.988281 222.761719 10.703125 223.929688 10.476562 225.113281 C 10.246094 226.296875 10.078125 227.484375 9.96875 228.683594 C 9.855469 229.886719 9.804688 231.085938 9.8125 232.292969 C 9.820312 233.496094 9.886719 234.695312 10.011719 235.894531 C 10.136719 237.09375 10.320312 238.28125 10.5625 239.460938 C 10.800781 240.640625 11.101562 241.808594 11.457031 242.957031 C 11.8125 244.109375 12.222656 245.238281 12.691406 246.347656 C 13.160156 247.460938 13.679688 248.542969 14.25 249.605469 C 14.824219 250.664062 15.449219 251.691406 16.125 252.691406 C 16.796875 253.6875 17.519531 254.652344 18.289062 255.578125 C 19.054688 256.503906 19.867188 257.394531 20.722656 258.242188 C 21.578125 259.089844 22.476562 259.890625 23.410156 260.652344 C 24.34375 261.410156 25.3125 262.125 26.316406 262.789062 C 27.324219 263.453125 28.355469 264.066406 29.421875 264.628906 C 30.488281 265.195312 31.578125 265.703125 32.691406 266.160156 C 33.804688 266.617188 34.941406 267.015625 36.09375 267.363281 C 37.25 267.707031 38.417969 267.996094 39.597656 268.226562 C 40.78125 268.457031 41.972656 268.628906 43.171875 268.742188 C 44.371094 268.855469 45.570312 268.910156 46.777344 268.90625 C 47.980469 268.902344 49.183594 268.839844 50.378906 268.714844 C 51.578125 268.59375 52.769531 268.414062 53.949219 268.175781 C 55.128906 267.9375 56.296875 267.640625 57.445312 267.289062 C 58.605469 266.933594 59.742188 266.519531 60.863281 266.050781 C 61.980469 265.585938 63.074219 265.0625 64.140625 264.488281 C 65.207031 263.910156 66.242188 263.285156 67.246094 262.605469 C 68.25 261.929688 69.21875 261.203125 70.152344 260.429688 C 71.085938 259.65625 71.980469 258.839844 72.832031 257.976562 C 73.683594 257.117188 74.492188 256.214844 75.257812 255.273438 C 76.019531 254.332031 76.734375 253.355469 77.402344 252.34375 C 78.070312 251.332031 78.683594 250.289062 79.25 249.214844 C 79.8125 248.140625 80.324219 247.042969 80.777344 245.921875 C 81.234375 244.796875 81.632812 243.65625 81.976562 242.492188 C 82.320312 241.332031 82.605469 240.152344 82.832031 238.964844 C 83.058594 237.773438 83.226562 236.574219 83.335938 235.367188 C 83.441406 234.160156 83.492188 232.949219 83.480469 231.738281 C 83.46875 230.523438 83.398438 229.316406 83.269531 228.113281 C 83.136719 226.90625 82.949219 225.710938 82.699219 224.523438 C 82.453125 223.339844 82.144531 222.167969 81.78125 221.011719 Z M 121.675781 277.261719 C 120.699219 276.550781 119.6875 275.890625 118.648438 275.28125 C 117.605469 274.671875 116.535156 274.113281 115.441406 273.609375 C 114.34375 273.101562 113.222656 272.652344 112.082031 272.257812 C 110.941406 271.863281 109.785156 271.523438 108.609375 271.242188 C 107.4375 270.960938 106.25 270.738281 105.054688 270.574219 C 103.859375 270.410156 102.65625 270.304688 101.449219 270.257812 C 100.246094 270.210938 99.039062 270.222656 97.832031 270.292969 C 96.628906 270.367188 95.429688 270.496094 94.238281 270.6875 C 93.042969 270.878906 91.863281 271.125 90.695312 271.429688 C 89.527344 271.738281 88.378906 272.101562 87.246094 272.519531 C 86.113281 272.9375 85.003906 273.410156 83.917969 273.941406 C 82.832031 274.46875 81.773438 275.046875 80.746094 275.679688 C 79.71875 276.3125 78.722656 276.992188 77.761719 277.722656 C 76.796875 278.453125 75.875 279.226562 74.988281 280.050781 C 74.105469 280.871094 73.261719 281.730469 72.460938 282.636719 C 71.660156 283.539062 70.90625 284.480469 70.195312 285.457031 C 69.488281 286.4375 68.828125 287.445312 68.222656 288.488281 C 67.613281 289.53125 67.054688 290.601562 66.550781 291.699219 C 66.046875 292.796875 65.601562 293.914062 65.207031 295.058594 C 64.8125 296.199219 64.476562 297.355469 64.195312 298.53125 C 63.917969 299.707031 63.695312 300.890625 63.53125 302.089844 C 63.367188 303.285156 63.265625 304.484375 63.21875 305.691406 C 63.175781 306.898438 63.1875 308.105469 63.261719 309.308594 C 63.335938 310.515625 63.46875 311.714844 63.660156 312.90625 C 63.851562 314.097656 64.101562 315.277344 64.410156 316.445312 C 64.714844 317.613281 65.082031 318.761719 65.5 319.894531 C 65.921875 321.027344 66.398438 322.136719 66.925781 323.21875 C 67.457031 324.304688 68.039062 325.363281 68.671875 326.390625 C 69.304688 327.417969 69.988281 328.410156 70.71875 329.371094 C 71.449219 330.332031 72.226562 331.257812 73.046875 332.140625 C 73.871094 333.023438 74.734375 333.867188 75.636719 334.667969 C 76.542969 335.464844 77.484375 336.21875 78.464844 336.925781 C 79.441406 337.632812 80.453125 338.289062 81.496094 338.898438 C 82.539062 339.503906 83.609375 340.058594 84.710938 340.5625 C 85.808594 341.066406 86.925781 341.511719 88.070312 341.902344 C 89.210938 342.296875 90.371094 342.632812 91.542969 342.910156 C 92.71875 343.1875 93.90625 343.40625 95.101562 343.570312 C 96.296875 343.730469 97.5 343.832031 98.707031 343.875 C 99.914062 343.917969 101.121094 343.902344 102.324219 343.828125 C 103.53125 343.753906 104.726562 343.617188 105.917969 343.425781 C 107.113281 343.234375 108.292969 342.980469 109.457031 342.671875 C 110.625 342.363281 111.773438 341.996094 112.90625 341.574219 C 114.039062 341.152344 115.144531 340.675781 116.230469 340.144531 C 117.3125 339.613281 118.371094 339.03125 119.398438 338.398438 C 120.425781 337.761719 121.417969 337.078125 122.378906 336.347656 C 123.335938 335.613281 124.257812 334.835938 125.140625 334.011719 C 126.023438 333.1875 126.867188 332.324219 127.664062 331.417969 C 128.460938 330.511719 129.214844 329.570312 129.921875 328.589844 C 130.628906 327.617188 131.285156 326.609375 131.894531 325.570312 C 132.5 324.527344 133.058594 323.460938 133.5625 322.367188 C 134.0625 321.273438 134.511719 320.15625 134.90625 319.019531 C 135.300781 317.878906 135.636719 316.726562 135.914062 315.554688 C 136.195312 314.382812 136.414062 313.199219 136.578125 312.003906 C 136.742188 310.8125 136.847656 309.613281 136.890625 308.410156 C 136.9375 307.207031 136.921875 306.003906 136.847656 304.800781 C 136.777344 303.597656 136.644531 302.402344 136.453125 301.214844 C 136.261719 300.023438 136.011719 298.847656 135.707031 297.683594 C 135.398438 296.519531 135.035156 295.371094 134.617188 294.242188 C 134.195312 293.113281 133.722656 292.007812 133.191406 290.925781 C 132.664062 289.84375 132.082031 288.789062 131.453125 287.765625 C 130.820312 286.738281 130.136719 285.746094 129.40625 284.789062 C 128.675781 283.832031 127.902344 282.910156 127.082031 282.03125 C 126.261719 281.148438 125.398438 280.308594 124.496094 279.511719 C 123.59375 278.714844 122.652344 277.964844 121.675781 277.261719 Z M 188.164062 298.804688 C 186.957031 298.804688 185.753906 298.863281 184.550781 298.980469 C 183.351562 299.097656 182.15625 299.277344 180.972656 299.511719 C 179.789062 299.746094 178.621094 300.042969 177.464844 300.390625 C 176.308594 300.742188 175.171875 301.148438 174.058594 301.613281 C 172.941406 302.074219 171.851562 302.589844 170.789062 303.160156 C 169.722656 303.730469 168.691406 304.347656 167.6875 305.019531 C 166.683594 305.691406 165.714844 306.410156 164.78125 307.175781 C 163.847656 307.941406 162.957031 308.753906 162.101562 309.609375 C 161.25 310.460938 160.441406 311.355469 159.675781 312.289062 C 158.910156 313.222656 158.191406 314.191406 157.523438 315.195312 C 156.851562 316.203125 156.234375 317.234375 155.664062 318.300781 C 155.097656 319.367188 154.582031 320.457031 154.121094 321.574219 C 153.660156 322.6875 153.253906 323.824219 152.90625 324.980469 C 152.554688 326.136719 152.265625 327.304688 152.03125 328.492188 C 151.796875 329.675781 151.621094 330.867188 151.503906 332.070312 C 151.386719 333.269531 151.328125 334.476562 151.328125 335.683594 C 151.332031 336.890625 151.390625 338.09375 151.511719 339.296875 C 151.632812 340.496094 151.808594 341.691406 152.046875 342.875 C 152.285156 344.058594 152.578125 345.226562 152.929688 346.382812 C 153.285156 347.535156 153.691406 348.671875 154.15625 349.785156 C 154.617188 350.902344 155.136719 351.988281 155.707031 353.054688 C 156.277344 354.117188 156.898438 355.152344 157.570312 356.152344 C 158.246094 357.15625 158.964844 358.125 159.730469 359.054688 C 160.5 359.988281 161.3125 360.878906 162.164062 361.730469 C 163.019531 362.582031 163.917969 363.390625 164.851562 364.15625 C 165.785156 364.921875 166.753906 365.636719 167.761719 366.304688 C 168.765625 366.972656 169.800781 367.59375 170.867188 368.160156 C 171.933594 368.726562 173.023438 369.238281 174.140625 369.699219 C 175.257812 370.160156 176.394531 370.5625 177.550781 370.910156 C 178.707031 371.257812 179.875 371.550781 181.058594 371.78125 C 182.246094 372.015625 183.4375 372.1875 184.640625 372.304688 C 185.84375 372.417969 187.046875 372.476562 188.253906 372.472656 C 189.460938 372.46875 190.664062 372.410156 191.867188 372.285156 C 193.066406 372.164062 194.261719 371.984375 195.445312 371.746094 C 196.628906 371.507812 197.796875 371.210938 198.949219 370.859375 C 200.105469 370.503906 201.238281 370.097656 202.351562 369.632812 C 203.46875 369.167969 204.554688 368.648438 205.621094 368.074219 C 206.683594 367.503906 207.714844 366.878906 208.71875 366.207031 C 209.71875 365.535156 210.683594 364.8125 211.617188 364.042969 C 212.546875 363.273438 213.4375 362.460938 214.289062 361.605469 C 215.140625 360.75 215.949219 359.855469 216.710938 358.917969 C 217.472656 357.984375 218.1875 357.011719 218.855469 356.007812 C 219.523438 355 220.140625 353.964844 220.707031 352.898438 C 221.273438 351.832031 221.785156 350.738281 222.242188 349.621094 C 222.699219 348.503906 223.105469 347.367188 223.449219 346.210938 C 223.796875 345.054688 224.085938 343.882812 224.316406 342.699219 C 224.546875 341.515625 224.722656 340.320312 224.835938 339.117188 C 224.949219 337.917969 225.003906 336.710938 225 335.503906 C 225 334.300781 224.941406 333.097656 224.824219 331.898438 C 224.703125 330.699219 224.527344 329.511719 224.292969 328.328125 C 224.054688 327.148438 223.761719 325.980469 223.414062 324.828125 C 223.0625 323.675781 222.65625 322.542969 222.195312 321.429688 C 221.730469 320.316406 221.214844 319.230469 220.648438 318.167969 C 220.078125 317.105469 219.457031 316.074219 218.785156 315.074219 C 218.117188 314.070312 217.398438 313.105469 216.632812 312.175781 C 215.867188 311.246094 215.058594 310.355469 214.203125 309.503906 C 213.351562 308.65625 212.457031 307.847656 211.523438 307.085938 C 210.589844 306.324219 209.621094 305.609375 208.621094 304.941406 C 207.617188 304.273438 206.582031 303.660156 205.519531 303.09375 C 204.453125 302.527344 203.367188 302.015625 202.25 301.558594 C 201.136719 301.101562 200.003906 300.699219 198.847656 300.351562 C 197.695312 300.003906 196.527344 299.71875 195.34375 299.484375 C 194.160156 299.253906 192.96875 299.082031 191.769531 298.96875 C 190.570312 298.855469 189.371094 298.796875 188.164062 298.804688 Z M 254.652344 277.261719 C 253.675781 277.96875 252.734375 278.722656 251.832031 279.523438 C 250.925781 280.324219 250.0625 281.167969 249.242188 282.050781 C 248.421875 282.9375 247.644531 283.859375 246.914062 284.820312 C 246.183594 285.785156 245.5 286.777344 244.867188 287.808594 C 244.234375 288.835938 243.65625 289.894531 243.125 290.976562 C 242.597656 292.0625 242.125 293.171875 241.703125 294.304688 C 241.285156 295.4375 240.921875 296.589844 240.613281 297.757812 C 240.308594 298.925781 240.058594 300.105469 239.871094 301.296875 C 239.679688 302.488281 239.546875 303.6875 239.476562 304.894531 C 239.402344 306.101562 239.390625 307.304688 239.433594 308.511719 C 239.480469 309.71875 239.585938 310.921875 239.75 312.117188 C 239.914062 313.3125 240.136719 314.5 240.417969 315.671875 C 240.699219 316.847656 241.039062 318.007812 241.433594 319.148438 C 241.828125 320.289062 242.277344 321.40625 242.78125 322.503906 C 243.285156 323.601562 243.84375 324.671875 244.453125 325.714844 C 245.0625 326.757812 245.722656 327.765625 246.433594 328.742188 C 247.144531 329.71875 247.898438 330.660156 248.699219 331.5625 C 249.503906 332.464844 250.347656 333.328125 251.234375 334.148438 C 252.121094 334.96875 253.042969 335.742188 254.007812 336.472656 C 254.96875 337.199219 255.964844 337.878906 256.996094 338.511719 C 258.023438 339.144531 259.082031 339.722656 260.167969 340.25 C 261.257812 340.777344 262.367188 341.246094 263.5 341.664062 C 264.632812 342.082031 265.78125 342.445312 266.953125 342.75 C 268.121094 343.054688 269.300781 343.300781 270.492188 343.488281 C 271.6875 343.675781 272.886719 343.808594 274.089844 343.878906 C 275.296875 343.949219 276.503906 343.960938 277.710938 343.910156 C 278.917969 343.863281 280.117188 343.757812 281.3125 343.589844 C 282.511719 343.421875 283.695312 343.199219 284.871094 342.917969 C 286.042969 342.632812 287.199219 342.292969 288.339844 341.898438 C 289.480469 341.5 290.601562 341.050781 291.695312 340.542969 C 292.792969 340.035156 293.863281 339.476562 294.902344 338.863281 C 295.945312 338.253906 296.953125 337.59375 297.929688 336.882812 C 298.90625 336.171875 299.84375 335.414062 300.746094 334.609375 C 301.648438 333.804688 302.507812 332.960938 303.328125 332.074219 C 304.144531 331.183594 304.917969 330.257812 305.644531 329.296875 C 306.371094 328.332031 307.050781 327.332031 307.679688 326.304688 C 308.308594 325.273438 308.886719 324.214844 309.414062 323.125 C 309.9375 322.039062 310.410156 320.929688 310.824219 319.792969 C 311.242188 318.660156 311.601562 317.507812 311.902344 316.339844 C 312.207031 315.171875 312.449219 313.988281 312.636719 312.796875 C 312.824219 311.605469 312.949219 310.402344 313.019531 309.199219 C 313.085938 307.992188 313.097656 306.785156 313.046875 305.582031 C 312.996094 304.375 312.886719 303.171875 312.71875 301.976562 C 312.550781 300.78125 312.324219 299.597656 312.039062 298.421875 C 311.757812 297.25 311.414062 296.09375 311.015625 294.953125 C 310.617188 293.8125 310.164062 292.695312 309.65625 291.597656 C 309.148438 290.503906 308.585938 289.433594 307.972656 288.394531 C 307.359375 287.355469 306.695312 286.347656 305.984375 285.371094 C 305.273438 284.402344 304.519531 283.46875 303.71875 282.570312 C 302.917969 281.671875 302.074219 280.816406 301.1875 280.003906 C 300.304688 279.1875 299.382812 278.417969 298.421875 277.695312 C 297.460938 276.972656 296.46875 276.296875 295.441406 275.667969 C 294.414062 275.042969 293.359375 274.464844 292.277344 273.941406 C 291.195312 273.417969 290.089844 272.949219 288.960938 272.535156 C 287.832031 272.121094 286.683594 271.761719 285.519531 271.457031 C 284.355469 271.15625 283.179688 270.910156 281.992188 270.722656 C 280.804688 270.535156 279.609375 270.40625 278.410156 270.335938 C 277.210938 270.261719 276.007812 270.25 274.808594 270.296875 C 273.605469 270.34375 272.410156 270.449219 271.21875 270.613281 C 270.027344 270.777344 268.84375 271 267.675781 271.28125 C 266.507812 271.5625 265.351562 271.898438 264.214844 272.289062 C 263.078125 272.683594 261.964844 273.128906 260.871094 273.632812 C 259.777344 274.132812 258.710938 274.6875 257.675781 275.292969 C 256.636719 275.898438 255.628906 276.554688 254.652344 277.261719 Z M 341.886719 197.472656 C 340.742188 197.097656 339.578125 196.777344 338.402344 196.515625 C 337.222656 196.253906 336.035156 196.050781 334.835938 195.90625 C 333.636719 195.757812 332.4375 195.671875 331.230469 195.644531 C 330.023438 195.617188 328.816406 195.652344 327.613281 195.742188 C 326.410156 195.832031 325.214844 195.984375 324.027344 196.191406 C 322.835938 196.402344 321.660156 196.667969 320.5 196.992188 C 319.335938 197.316406 318.191406 197.699219 317.066406 198.136719 C 315.941406 198.570312 314.839844 199.0625 313.765625 199.609375 C 312.6875 200.152344 311.640625 200.75 310.621094 201.398438 C 309.605469 202.046875 308.621094 202.742188 307.671875 203.488281 C 306.722656 204.234375 305.808594 205.023438 304.9375 205.855469 C 304.066406 206.691406 303.238281 207.566406 302.449219 208.480469 C 301.664062 209.398438 300.925781 210.351562 300.234375 211.339844 C 299.539062 212.328125 298.898438 213.347656 298.304688 214.398438 C 297.714844 215.449219 297.175781 216.527344 296.6875 217.632812 C 296.203125 218.738281 295.769531 219.863281 295.394531 221.011719 C 295.019531 222.15625 294.703125 223.320312 294.441406 224.5 C 294.179688 225.675781 293.976562 226.867188 293.832031 228.0625 C 293.6875 229.261719 293.601562 230.464844 293.574219 231.671875 C 293.550781 232.878906 293.582031 234.082031 293.675781 235.285156 C 293.765625 236.488281 293.917969 237.6875 294.128906 238.875 C 294.335938 240.0625 294.605469 241.238281 294.929688 242.402344 C 295.257812 243.5625 295.636719 244.707031 296.074219 245.832031 C 296.511719 246.957031 297.003906 248.058594 297.550781 249.132812 C 298.097656 250.210938 298.695312 251.257812 299.34375 252.273438 C 299.992188 253.292969 300.6875 254.277344 301.433594 255.222656 C 302.179688 256.171875 302.96875 257.085938 303.804688 257.957031 C 304.640625 258.828125 305.515625 259.65625 306.433594 260.441406 C 307.347656 261.226562 308.300781 261.964844 309.289062 262.65625 C 310.28125 263.347656 311.300781 263.988281 312.351562 264.582031 C 313.40625 265.171875 314.484375 265.710938 315.589844 266.195312 C 316.691406 266.683594 317.820312 267.113281 318.964844 267.488281 C 320.113281 267.863281 321.277344 268.179688 322.457031 268.441406 C 323.632812 268.699219 324.820312 268.902344 326.019531 269.046875 C 327.21875 269.1875 328.421875 269.273438 329.628906 269.300781 C 330.835938 269.324219 332.039062 269.289062 333.242188 269.199219 C 334.445312 269.105469 335.640625 268.953125 336.832031 268.742188 C 338.019531 268.53125 339.195312 268.261719 340.355469 267.9375 C 341.519531 267.609375 342.660156 267.226562 343.785156 266.789062 C 344.910156 266.351562 346.011719 265.859375 347.085938 265.3125 C 348.164062 264.765625 349.210938 264.167969 350.226562 263.515625 C 351.242188 262.867188 352.226562 262.167969 353.175781 261.421875 C 354.125 260.675781 355.035156 259.886719 355.90625 259.050781 C 356.777344 258.214844 357.605469 257.339844 358.386719 256.421875 C 359.171875 255.503906 359.910156 254.550781 360.601562 253.5625 C 361.292969 252.574219 361.933594 251.550781 362.523438 250.5 C 363.117188 249.445312 363.652344 248.367188 364.136719 247.261719 C 364.621094 246.15625 365.050781 245.03125 365.425781 243.882812 C 365.800781 242.730469 366.121094 241.5625 366.382812 240.378906 C 366.644531 239.195312 366.847656 238.003906 366.992188 236.800781 C 367.136719 235.597656 367.21875 234.390625 367.242188 233.179688 C 367.269531 231.96875 367.234375 230.757812 367.136719 229.550781 C 367.042969 228.339844 366.890625 227.140625 366.675781 225.949219 C 366.464844 224.753906 366.191406 223.574219 365.863281 222.410156 C 365.53125 221.242188 365.144531 220.09375 364.703125 218.96875 C 364.261719 217.839844 363.761719 216.734375 363.210938 215.65625 C 362.660156 214.578125 362.054688 213.527344 361.402344 212.511719 C 360.746094 211.492188 360.042969 210.507812 359.289062 209.554688 C 358.535156 208.605469 357.738281 207.695312 356.898438 206.824219 C 356.054688 205.953125 355.171875 205.125 354.246094 204.339844 C 353.324219 203.558594 352.363281 202.820312 351.367188 202.132812 C 350.367188 201.441406 349.339844 200.804688 348.28125 200.214844 C 347.222656 199.628906 346.136719 199.09375 345.023438 198.613281 C 343.910156 198.132812 342.777344 197.710938 341.621094 197.339844 Z M 295.480469 151.460938 C 295.855469 152.609375 296.285156 153.738281 296.769531 154.84375 C 297.257812 155.949219 297.796875 157.027344 298.386719 158.078125 C 298.980469 159.132812 299.625 160.152344 300.316406 161.140625 C 301.007812 162.128906 301.75 163.082031 302.535156 164 C 303.320312 164.914062 304.148438 165.792969 305.023438 166.625 C 305.894531 167.460938 306.804688 168.25 307.757812 168.996094 C 308.707031 169.742188 309.691406 170.4375 310.710938 171.085938 C 311.730469 171.734375 312.777344 172.332031 313.855469 172.878906 C 314.929688 173.421875 316.03125 173.914062 317.160156 174.351562 C 318.285156 174.789062 319.429688 175.167969 320.59375 175.492188 C 321.753906 175.816406 322.929688 176.082031 324.121094 176.292969 C 325.308594 176.5 326.507812 176.652344 327.710938 176.742188 C 328.914062 176.832031 330.121094 176.863281 331.328125 176.835938 C 332.535156 176.808594 333.738281 176.722656 334.9375 176.578125 C 336.136719 176.433594 337.324219 176.226562 338.503906 175.964844 C 339.679688 175.703125 340.84375 175.382812 341.992188 175.003906 C 343.136719 174.628906 344.265625 174.195312 345.367188 173.707031 C 346.472656 173.21875 347.550781 172.679688 348.601562 172.085938 C 349.65625 171.492188 350.675781 170.847656 351.664062 170.152344 C 352.648438 169.460938 353.601562 168.71875 354.515625 167.929688 C 355.433594 167.144531 356.308594 166.3125 357.140625 165.4375 C 357.972656 164.566406 358.761719 163.652344 359.507812 162.703125 C 360.25 161.75 360.945312 160.765625 361.59375 159.746094 C 362.238281 158.726562 362.835938 157.675781 363.378906 156.597656 C 363.921875 155.519531 364.410156 154.417969 364.847656 153.292969 C 365.28125 152.164062 365.660156 151.019531 365.984375 149.855469 C 366.308594 148.691406 366.570312 147.515625 366.777344 146.328125 C 366.984375 145.136719 367.132812 143.941406 367.222656 142.734375 C 367.3125 141.53125 367.34375 140.324219 367.3125 139.117188 C 367.285156 137.910156 367.195312 136.707031 367.046875 135.511719 C 366.898438 134.3125 366.695312 133.125 366.429688 131.945312 C 366.164062 130.765625 365.84375 129.605469 365.464844 128.457031 C 365.085938 127.3125 364.652344 126.1875 364.164062 125.082031 C 363.671875 123.976562 363.128906 122.902344 362.535156 121.851562 C 361.941406 120.800781 361.292969 119.78125 360.597656 118.792969 C 359.902344 117.808594 359.160156 116.855469 358.371094 115.941406 C 357.582031 115.027344 356.75 114.15625 355.875 113.324219 C 355 112.492188 354.085938 111.703125 353.136719 110.960938 C 352.183594 110.21875 351.195312 109.523438 350.175781 108.878906 C 349.15625 108.234375 348.105469 107.640625 347.027344 107.097656 C 345.949219 106.554688 344.84375 106.066406 343.71875 105.632812 C 342.589844 105.199219 341.445312 104.824219 340.28125 104.503906 C 339.117188 104.179688 337.941406 103.917969 336.75 103.714844 C 335.558594 103.507812 334.363281 103.363281 333.15625 103.273438 C 331.953125 103.1875 330.75 103.15625 329.539062 103.1875 C 328.332031 103.21875 327.132812 103.308594 325.933594 103.460938 C 324.734375 103.609375 323.546875 103.816406 322.367188 104.082031 C 321.191406 104.347656 320.027344 104.671875 318.882812 105.054688 C 317.738281 105.425781 316.617188 105.851562 315.515625 106.335938 C 314.410156 106.816406 313.335938 107.351562 312.285156 107.941406 C 311.238281 108.527344 310.21875 109.167969 309.230469 109.855469 C 308.246094 110.542969 307.292969 111.277344 306.378906 112.058594 C 305.464844 112.839844 304.589844 113.664062 303.753906 114.527344 C 302.917969 115.394531 302.128906 116.300781 301.382812 117.246094 C 300.636719 118.1875 299.941406 119.167969 299.289062 120.179688 C 298.640625 121.191406 298.042969 122.234375 297.492188 123.304688 C 296.945312 124.375 296.453125 125.46875 296.011719 126.589844 C 295.570312 127.710938 295.183594 128.847656 294.855469 130.003906 C 294.527344 131.164062 294.253906 132.332031 294.042969 133.515625 C 293.828125 134.699219 293.671875 135.890625 293.574219 137.089844 C 293.476562 138.289062 293.4375 139.492188 293.457031 140.695312 C 293.476562 141.898438 293.554688 143.097656 293.695312 144.289062 C 293.832031 145.484375 294.027344 146.671875 294.28125 147.847656 C 294.535156 149.023438 294.84375 150.183594 295.210938 151.328125 Z M 254.652344 95.078125 C 255.632812 95.789062 256.640625 96.449219 257.683594 97.058594 C 258.722656 97.667969 259.792969 98.226562 260.890625 98.734375 C 261.988281 99.238281 263.105469 99.6875 264.246094 100.082031 C 265.386719 100.476562 266.546875 100.816406 267.71875 101.097656 C 268.894531 101.378906 270.078125 101.601562 271.273438 101.765625 C 272.472656 101.929688 273.671875 102.035156 274.878906 102.082031 C 276.085938 102.128906 277.292969 102.117188 278.496094 102.046875 C 279.703125 101.972656 280.902344 101.84375 282.09375 101.652344 C 283.285156 101.460938 284.464844 101.214844 285.632812 100.910156 C 286.800781 100.601562 287.953125 100.242188 289.085938 99.820312 C 290.214844 99.402344 291.324219 98.929688 292.410156 98.402344 C 293.496094 97.871094 294.554688 97.292969 295.582031 96.660156 C 296.613281 96.027344 297.609375 95.347656 298.570312 94.617188 C 299.53125 93.886719 300.453125 93.113281 301.339844 92.292969 C 302.226562 91.46875 303.070312 90.609375 303.871094 89.703125 C 304.671875 88.800781 305.425781 87.859375 306.132812 86.882812 C 306.839844 85.902344 307.5 84.894531 308.109375 83.851562 C 308.71875 82.808594 309.273438 81.738281 309.777344 80.640625 C 310.28125 79.542969 310.730469 78.425781 311.125 77.28125 C 311.515625 76.140625 311.855469 74.984375 312.132812 73.808594 C 312.414062 72.632812 312.632812 71.449219 312.796875 70.253906 C 312.960938 69.054688 313.066406 67.855469 313.109375 66.648438 C 313.15625 65.441406 313.140625 64.234375 313.066406 63.03125 C 312.992188 61.824219 312.859375 60.625 312.667969 59.433594 C 312.476562 58.242188 312.226562 57.0625 311.921875 55.894531 C 311.613281 54.726562 311.25 53.578125 310.828125 52.445312 C 310.40625 51.3125 309.933594 50.207031 309.402344 49.121094 C 308.875 48.035156 308.292969 46.980469 307.660156 45.949219 C 307.023438 44.921875 306.34375 43.929688 305.613281 42.96875 C 304.878906 42.007812 304.105469 41.085938 303.28125 40.199219 C 302.460938 39.316406 301.597656 38.472656 300.691406 37.671875 C 299.785156 36.875 298.84375 36.121094 297.867188 35.414062 C 296.886719 34.707031 295.875 34.050781 294.832031 33.441406 C 293.789062 32.835938 292.71875 32.28125 291.621094 31.777344 C 290.523438 31.277344 289.402344 30.828125 288.261719 30.4375 C 287.117188 30.042969 285.960938 29.710938 284.785156 29.429688 C 283.609375 29.152344 282.425781 28.933594 281.226562 28.773438 C 280.03125 28.609375 278.828125 28.507812 277.621094 28.464844 C 276.417969 28.421875 275.210938 28.4375 274.003906 28.511719 C 272.800781 28.585938 271.601562 28.722656 270.410156 28.914062 C 269.21875 29.109375 268.039062 29.359375 266.871094 29.667969 C 265.703125 29.976562 264.554688 30.34375 263.421875 30.765625 C 262.292969 31.1875 261.183594 31.664062 260.101562 32.195312 C 259.015625 32.726562 257.960938 33.308594 256.933594 33.941406 C 255.90625 34.578125 254.914062 35.261719 253.953125 35.996094 C 252.992188 36.726562 252.070312 37.503906 251.1875 38.328125 C 250.304688 39.152344 249.464844 40.015625 248.664062 40.921875 C 247.867188 41.828125 247.113281 42.769531 246.410156 43.75 C 245.703125 44.726562 245.042969 45.730469 244.4375 46.773438 C 243.828125 47.8125 243.273438 48.878906 242.769531 49.972656 C 242.265625 51.066406 241.816406 52.183594 241.425781 53.320312 C 241.03125 54.460938 240.695312 55.617188 240.414062 56.785156 C 240.136719 57.957031 239.914062 59.140625 239.75 60.335938 C 239.585938 61.527344 239.484375 62.726562 239.4375 63.929688 C 239.394531 65.132812 239.40625 66.335938 239.480469 67.539062 C 239.554688 68.742188 239.6875 69.9375 239.878906 71.125 C 240.066406 72.316406 240.316406 73.492188 240.625 74.65625 C 240.929688 75.820312 241.292969 76.96875 241.714844 78.097656 C 242.132812 79.226562 242.609375 80.332031 243.136719 81.414062 C 243.664062 82.496094 244.246094 83.550781 244.878906 84.574219 C 245.511719 85.601562 246.191406 86.59375 246.921875 87.550781 C 247.652344 88.507812 248.425781 89.429688 249.246094 90.308594 C 250.070312 91.191406 250.929688 92.03125 251.832031 92.828125 C 252.738281 93.625 253.675781 94.375 254.652344 95.078125 Z M 254.652344 95.078125"/></svg>